HIERARCHY
ROOT Hips
{
  OFFSET 0.0273292 -0.436096 0.279869
  CHANNELS 6 Xposition Yposition Zposition Zrotation Xrotation Yrotation
  JOINT LHipJoint
  {
    OFFSET 0 0 0
    CHANNELS 6 Xposition Yposition Zposition Zrotation Xrotation Yrotation
    JOINT LeftUpLeg
    {
      OFFSET 1.36306 -1.79463 0
      CHANNELS 6 Xposition Yposition Zposition Zrotation Xrotation Yrotation
      JOINT LeftLeg
      {
        OFFSET 2.44807 -6.72613 0.000295034
        CHANNELS 6 Xposition Yposition Zposition Zrotation Xrotation Yrotation
        JOINT LeftFoot
        {
          OFFSET 2.5622 -7.03959 3.59965e-05
          CHANNELS 6 Xposition Yposition Zposition Zrotation Xrotation Yrotation
          JOINT LeftToeBase
          {
            OFFSET 0.15764 -0.43311 2.32255
            CHANNELS 6 Xposition Yposition Zposition Zrotation Xrotation Yrotation
            End Site
            {
              OFFSET 0 0 0
            }
          }
        }
      }
    }
  }
  JOINT RHipJoint
  {
    OFFSET 0 0 0
    CHANNELS 6 Xposition Yposition Zposition Zrotation Xrotation Yrotation
    JOINT RightUpLeg
    {
      OFFSET -1.30552 -1.79463 0
      CHANNELS 6 Xposition Yposition Zposition Zrotation Xrotation Yrotation
      JOINT RightLeg
      {
        OFFSET -2.54234 -6.98562 -0.000396375
        CHANNELS 6 Xposition Yposition Zposition Zrotation Xrotation Yrotation
        JOINT RightFoot
        {
          OFFSET -2.56826 -7.05623 -4.47982e-05
          CHANNELS 6 Xposition Yposition Zposition Zrotation Xrotation Yrotation
          JOINT RightToeBase
          {
            OFFSET -0.16473 -0.45259 2.36315
            CHANNELS 6 Xposition Yposition Zposition Zrotation Xrotation Yrotation
            End Site
            {
              OFFSET 0 0 0
            }
          }
        }
      }
    }
  }
  JOINT LowerBack
  {
    OFFSET 0 0 0
    CHANNELS 6 Xposition Yposition Zposition Zrotation Xrotation Yrotation
    JOINT Spine
    {
      OFFSET 0.0282699 2.03559 0
      CHANNELS 6 Xposition Yposition Zposition Zrotation Xrotation Yrotation
      JOINT Spine1
      {
        OFFSET 0.05672 2.04885 -0.04275
        CHANNELS 6 Xposition Yposition Zposition Zrotation Xrotation Yrotation
        JOINT Neck
        {
          OFFSET 0 0 0
          CHANNELS 6 Xposition Yposition Zposition Zrotation Xrotation Yrotation
          JOINT Neck1
          {
            OFFSET -0.05417 1.74624 0.17202
            CHANNELS 6 Xposition Yposition Zposition Zrotation Xrotation Yrotation
            JOINT Head
            {
              OFFSET 0.10407 1.76136 -0.12397
              CHANNELS 6 Xposition Yposition Zposition Zrotation Xrotation Yrotation
              End Site
              {
                OFFSET 0 0 0
              }
            }
          }
        }
        JOINT LeftShoulder
        {
          OFFSET 0 0 0
          CHANNELS 6 Xposition Yposition Zposition Zrotation Xrotation Yrotation
          JOINT LeftArm
          {
            OFFSET 3.36241 1.20089 -0.311211
            CHANNELS 6 Xposition Yposition Zposition Zrotation Xrotation Yrotation
            JOINT LeftForeArm
            {
              OFFSET 4.983 0.000197398 0.000166057
              CHANNELS 6 Xposition Yposition Zposition Zrotation Xrotation Yrotation
              JOINT LeftHand
              {
                OFFSET 3.48356 0 1.87849e-05
                CHANNELS 6 Xposition Yposition Zposition Zrotation Xrotation Yrotation
                JOINT LeftFingerBase
                {
                  OFFSET 0 0 0
                  CHANNELS 6 Xposition Yposition Zposition Zrotation Xrotation Yrotation
                  JOINT LeftHandIndex1
                  {
                    OFFSET 0.71526 0 0
                    CHANNELS 6 Xposition Yposition Zposition Zrotation Xrotation Yrotation
                    End Site
                    {
                      OFFSET 0 0 0
                    }
                  }
                }
                JOINT LThumb
                {
                  OFFSET 0 0 0
                  CHANNELS 6 Xposition Yposition Zposition Zrotation Xrotation Yrotation
                  End Site
                  {
                    OFFSET 0 0 0
                  }
                }
              }
            }
          }
        }
        JOINT RightShoulder
        {
          OFFSET 0 0 0
          CHANNELS 6 Xposition Yposition Zposition Zrotation Xrotation Yrotation
          JOINT RightArm
          {
            OFFSET -3.1366 1.37405 -0.404651
            CHANNELS 6 Xposition Yposition Zposition Zrotation Xrotation Yrotation
            JOINT RightForeArm
            {
              OFFSET -5.2419 -5.8808e-05 -0.000165864
              CHANNELS 6 Xposition Yposition Zposition Zrotation Xrotation Yrotation
              JOINT RightHand
              {
                OFFSET -3.44417 0 -2.00002e-05
                CHANNELS 6 Xposition Yposition Zposition Zrotation Xrotation Yrotation
                JOINT RightFingerBase
                {
                  OFFSET 0 0 0
                  CHANNELS 6 Xposition Yposition Zposition Zrotation Xrotation Yrotation
                  JOINT RightHandIndex1
                  {
                    OFFSET -0.62253 0 0
                    CHANNELS 6 Xposition Yposition Zposition Zrotation Xrotation Yrotation
                    End Site
                    {
                      OFFSET 0 0 0
                    }
                  }
                }
                JOINT RThumb
                {
                  OFFSET 0 0 0
                  CHANNELS 6 Xposition Yposition Zposition Zrotation Xrotation Yrotation
                  End Site
                  {
                    OFFSET 0 0 0
                  }
                }
              }
            }
          }
        }
      }
    }
  }
}
MOTION
Frames:	5
Frame Time:	0.00833333
-0.0457736 0.346157 -2.16941 -0 -7.1614 -0 0 0 0 0 0 -0 1.36306 -1.79463 -6.33043e-08 -128.541 -65.2118 -133.91 2.44779 -6.72624 -0.00604513 -120.216 57.6932 144.279 2.5622 -7.03959 5.16271e-05 -1.66551 -3.23652 -2.28443 0.15764 -0.43311 2.32255 -5.88278e-15 7.95139e-16 9.93923e-17 0 0 0 0 0 -0 -1.30552 -1.79463 -6.33043e-08 69.0517 -71.261 71.407 -2.54232 -6.98562 -0.00175459 109.165 63.8256 -131.766 -2.56826 -7.05624 -4.29638e-05 3.78154 -13.6671 8.29817 -0.16473 -0.45259 2.36315 3.00145e-15 -7.76503e-19 3.88251e-19 0 0 0 0 0 -0 0.0282698 2.03559 3.64247e-07 3.20817 16.8964 -7.20501 0.05672 2.04885 -0.04275 -1.98785e-16 -1.59028e-15 1.59028e-15 0 0 0 0 0 -0 -0.05417 1.74624 0.17202 -0.409142 -33.1802 0.923744 0.10407 1.76136 -0.12397 -3.97569e-16 0 1.59028e-15 0 0 0 0 0 -0 3.36241 1.20089 -0.311211 -89.1561 -8.02696 -77.0657 4.983 0.000271862 -2.88234e-05 -0.263449 -1.61135 -18.7702 3.48356 2.04579e-06 -1.20214e-05 -5.98973e-22 1.73937e-16 0.000197305 0 0 0 0 9.19379e-16 -0 0.71526 0 0 0 5.46658e-16 -0 0 0 0 0 9.19379e-16 -0 0 0 0 0 0 -0 -3.1366 1.37405 -0.40465 86.9397 0.332679 77.3808 -5.2419 0.000278768 -7.18331e-06 0.263558 -1.61126 18.7704 -3.44417 2.90474e-06 -1.23071e-05 0 0 -0.000200639 0 0 0 1.59028e-15 -3.97569e-16 -0 -0.62253 4.44089e-16 0 1.59028e-15 -2.48481e-16 -0 0 0 0 1.59028e-15 -3.97569e-16 -0 
-0.0435554 0.17681 -2.1993 -0.130648 -7.20864 0.209067 0 0 0 -1.86361e-17 -2.38542e-15 4.96962e-17 1.36306 -1.79463 -6.33043e-08 -132.762 -61.9961 -138.786 2.44779 -6.72624 -0.00604513 -121.77 56.1378 146.099 2.5622 -7.03959 5.16271e-05 -1.64351 -2.25762 -2.11914 0.15764 -0.43311 2.32255 -2.72087e-15 3.97569e-16 -0 0 0 0 -1.86361e-17 -2.38542e-15 4.96962e-17 -1.30552 -1.79463 -6.33043e-08 76.3309 -72.141 79.2298 -2.54232 -6.98562 -0.00175459 113.489 61.5484 -136.59 -2.56826 -7.05624 -4.29638e-05 3.8703 -13.7791 8.60003 -0.16473 -0.45259 2.36315 3.53377e-15 0 -2.48481e-17 0 0 0 -1.86361e-17 -2.38542e-15 4.96962e-17 0.0282698 2.03559 3.64247e-07 3.53786 16.8593 -8.64449 0.05672 2.04885 -0.04275 -0 0 1.59028e-15 0 0 0 -1.98785e-16 -1.59028e-15 3.18055e-15 -0.05417 1.74624 0.17202 -0.325055 -33.2426 0.961081 0.10407 1.76136 -0.12397 -3.97569e-16 -3.18055e-15 2.38542e-15 0 0 0 -1.98785e-16 -1.59028e-15 3.18055e-15 3.36241 1.20089 -0.311211 -89.1041 -8.17942 -75.7421 4.983 0.000271862 -2.88234e-05 -0.298456 -1.71534 -19.2965 3.48356 2.04579e-06 -1.20214e-05 -1.98782e-16 -7.01958e-16 0.000210067 0 0 0 -0 -1.39149e-15 -0 0.71526 8.88178e-16 4.44089e-16 -1.98785e-16 -5.96354e-16 -0 0 0 0 -0 -1.39149e-15 -0 0 0 0 -1.98785e-16 -1.59028e-15 3.18055e-15 -3.1366 1.37405 -0.40465 89.1765 -0.379541 75.9931 -5.2419 0.000278768 -7.18331e-06 0.310245 -1.74863 19.297 -3.44417 2.90474e-06 -1.23071e-05 -9.37804e-06 1.98785e-16 -0.000212154 0 0 0 1.59028e-15 -2.98177e-16 7.95139e-16 -0.62253 0 0 -1.59028e-15 9.93923e-17 7.95139e-16 0 0 0 1.59028e-15 -2.98177e-16 7.95139e-16 
-0.0424163 0.0898481 -2.21466 -0.142813 -7.23239 0.723328 0 0 0 2.48481e-17 7.95139e-16 9.93923e-17 1.36306 -1.79463 -6.33043e-08 -134.714 -60.3621 -141.092 2.44779 -6.72624 -0.00604513 -122.663 55.385 147.164 2.5622 -7.03959 5.16271e-05 -1.65058 -1.26546 -1.75869 0.15764 -0.43311 2.32255 -3.66509e-15 0 -1.98785e-16 0 0 0 2.48481e-17 7.95139e-16 9.93923e-17 -1.30552 -1.79463 -6.33043e-08 80.1838 -72.8438 83.3585 -2.54232 -6.98562 -0.00175459 115.632 60.4035 -139.024 -2.56826 -7.05624 -4.29638e-05 3.91903 -13.8727 8.75655 -0.16473 -0.45259 2.36315 1.53476e-15 0 -2.48481e-17 0 0 0 2.48481e-17 7.95139e-16 9.93923e-17 0.0282698 2.03559 3.64247e-07 3.49043 16.841 -9.23704 0.05672 2.04885 -0.04275 1.98785e-16 1.59028e-15 -0 0 0 0 -1.98785e-16 0 -0 -0.05417 1.74624 0.17202 -0.123214 -33.2677 1.05046 0.10407 1.76136 -0.12397 0 0 -0 0 0 0 -1.98785e-16 0 -0 3.36241 1.20089 -0.311211 -88.9697 -8.23024 -72.5689 4.983 0.000271862 -2.88234e-05 -0.3342 -1.81402 -20.5734 3.48356 2.04579e-06 -1.20214e-05 1.98782e-16 5.46658e-16 0.000240904 0 0 0 -1.98785e-16 6.58474e-16 7.95139e-16 0.71526 4.44089e-16 0 -9.93923e-17 2.48481e-16 7.95139e-16 0 0 0 -1.98785e-16 6.58474e-16 7.95139e-16 0 0 0 -1.98785e-16 0 -0 -3.1366 1.37405 -0.40465 88.8814 -0.908432 72.7683 -5.2419 0.000278768 -7.18331e-06 0.345361 -1.84346 20.5737 -3.44417 2.90474e-06 -1.23071e-05 -3.06719e-05 0 -0.000240316 0 0 0 -5.51738e-33 1.98785e-16 1.59028e-15 -0.62253 -4.44089e-16 4.44089e-16 3.18055e-15 -7.95139e-16 7.95139e-16 0 0 0 -5.51738e-33 1.98785e-16 1.59028e-15 
-0.0419967 0.0578095 -2.22031 -0.108219 -7.23985 1.3733 0 0 0 -2.48481e-17 0 -0 1.36306 -1.79463 -6.33043e-08 -135.315 -59.7271 -141.813 2.44779 -6.72624 -0.00604513 -123.114 55.1529 147.707 2.5622 -7.03959 5.16271e-05 -1.67559 -0.496398 -1.39908 0.15764 -0.43311 2.32255 -2.62768e-15 0 -0 0 0 0 -2.48481e-17 0 -0 -1.30552 -1.79463 -6.33043e-08 81.5354 -73.5673 84.8082 -2.54232 -6.98562 -0.00175459 116.561 60.0473 -140.091 -2.56826 -7.05624 -4.29638e-05 3.94988 -14.0361 8.81922 -0.16473 -0.45259 2.36315 8.87251e-16 -1.49089e-16 -0 0 0 0 -2.48481e-17 0 -0 0.0282698 2.03559 3.64247e-07 3.29231 16.8327 -9.49095 0.05672 2.04885 -0.04275 3.97569e-16 -1.59028e-15 1.59028e-15 0 0 0 0 1.59028e-15 -0 -0.05417 1.74624 0.17202 0.125746 -33.2778 1.16066 0.10407 1.76136 -0.12397 -3.97569e-16 0 -0 0 0 0 0 1.59028e-15 -0 3.36241 1.20089 -0.311211 -88.8088 -7.77465 -68.8561 4.983 0.000271862 -2.88234e-05 -0.373209 -1.90884 -22.1505 3.48356 2.04579e-06 -1.20214e-05 -2.90029e-21 5.96354e-16 0.00027865 0 0 0 -1.98785e-16 1.11816e-16 1.59028e-15 0.71526 0 0 9.93923e-17 9.93923e-17 1.59028e-15 0 0 0 -1.98785e-16 1.11816e-16 1.59028e-15 0 0 0 0 1.59028e-15 -0 -3.1366 1.37405 -0.40465 87.6357 -1.30087 69.0693 -5.2419 0.000278768 -7.18331e-06 0.37779 -1.9199 22.1505 -3.44417 2.90474e-06 -1.23071e-05 -5.36213e-05 -3.97569e-16 -0.00027555 0 0 0 -1.59028e-15 0 1.59028e-15 -0.62253 -1.33227e-15 0 -0 -7.95139e-16 -0 0 0 0 -1.59028e-15 0 1.59028e-15 
-0.0419367 0.0532326 -2.22112 -0.0987372 -7.23887 1.98947 0 0 0 -4.96962e-17 1.59028e-15 7.95139e-16 1.36306 -1.79463 -6.33043e-08 -134.836 -59.41 -141.262 2.44779 -6.72624 -0.00604513 -123.243 55.1432 147.865 2.5622 -7.03959 5.16271e-05 -1.69102 -0.187381 -1.23574 0.15764 -0.43311 2.32255 5.77407e-15 7.95139e-16 -9.93923e-17 0 0 0 -4.96962e-17 1.59028e-15 7.95139e-16 -1.30552 -1.79463 -6.33043e-08 81.5371 -74.297 84.8163 -2.54232 -6.98562 -0.00175459 116.785 60.0345 -140.35 -2.56826 -7.05624 -4.29638e-05 3.98565 -14.3571 8.83991 -0.16473 -0.45259 2.36315 3.44487e-15 3.88251e-19 -0 0 0 0 -4.96962e-17 1.59028e-15 7.95139e-16 0.0282698 2.03559 3.64247e-07 3.16942 16.8181 -9.91409 0.05672 2.04885 -0.04275 -5.96354e-16 1.59028e-15 -0 0 0 0 0 1.59028e-15 -0 -0.05417 1.74624 0.17202 0.351257 -33.2953 1.26051 0.10407 1.76136 -0.12397 3.97569e-16 0 -7.95139e-16 0 0 0 0 1.59028e-15 -0 3.36241 1.20089 -0.311211 -88.579 -7.13923 -66.0519 4.983 0.000271862 -2.88234e-05 -0.41477 -2.00362 -23.5778 3.48356 2.04579e-06 -1.20214e-05 2.4848e-17 9.31803e-18 0.000312135 0 0 0 1.73937e-16 4.7522e-16 -0 0.71526 4.44089e-16 0 1.2424e-16 4.9075e-16 -0 0 0 0 1.73937e-16 4.7522e-16 -0 0 0 0 0 1.59028e-15 -0 -3.1366 1.37405 -0.40465 87.0447 -1.59466 66.2789 -5.2419 0.000278768 -7.18331e-06 0.414925 -2.00385 23.5775 -3.44417 2.90474e-06 -1.23071e-05 -6.79658e-05 -1.98785e-16 -0.00030828 0 0 0 0 5.96354e-16 -0 -0.62253 -4.44089e-16 4.44089e-16 1.10348e-32 3.97569e-16 -1.59028e-15 0 0 0 0 5.96354e-16 -0 
